<svg width="18" height="18" viewBox="0 0 18 18" fill="none" xmlns="http://www.w3.org/2000/svg">
<g id="Icons" clip-path="url(#clip0_124_274)">
<path id="Vector" fill-rule="evenodd" clip-rule="evenodd" d="M4.27209 0.00301561C4.11689 0.00559526 3.93549 0.0114726 3.86898 0.016075C3.80246 0.0206773 3.68208 0.0275444 3.60146 0.0313332C3.52083 0.0351294 3.40704 0.0430734 3.34859 0.0489949C3.29014 0.0549163 3.21758 0.061732 3.18735 0.0641431C2.93176 0.0845458 2.48893 0.196211 2.21254 0.309943C1.77588 0.489639 1.41538 0.72696 1.08482 1.05237C0.825004 1.30813 0.608202 1.60219 0.436138 1.93218C0.244571 2.29958 0.0921501 2.82592 0.0581199 3.23754C-0.00231783 3.96861 0.00308415 3.43182 0.000753417 8.93916C-0.00110091 13.316 -8.21888e-05 13.8716 0.0101276 14.0545C0.0164235 14.1673 0.024669 14.324 0.028451 14.4026C0.0322256 14.4812 0.0401704 14.5933 0.0460926 14.6518C0.0520147 14.7102 0.0588382 14.7828 0.0612496 14.813C0.0816032 15.0679 0.193632 15.5121 0.307076 15.7877C0.37529 15.9534 0.428999 16.0632 0.516856 16.2164C0.843489 16.7861 1.33292 17.2529 1.92949 17.5639C2.29712 17.7556 2.82655 17.9085 3.23865 17.9421C3.98052 18.0025 3.42195 17.9969 8.93722 17.9992C13.3145 18.0011 13.8702 18.0001 14.0531 17.9899C14.166 17.9836 14.3226 17.9754 14.4012 17.9716C14.4799 17.9679 14.5739 17.9616 14.6101 17.9576C14.6464 17.9536 14.7173 17.9468 14.7677 17.9425C14.9963 17.9232 15.2311 17.875 15.508 17.7907C15.5857 17.767 15.7269 17.7175 15.7865 17.693C16.2446 17.5044 16.6215 17.2507 16.9631 16.9007C17.2717 16.5846 17.535 16.1855 17.6821 15.8108C17.7264 15.6979 17.7367 15.6691 17.7682 15.5715C17.8649 15.2716 17.9207 15.0105 17.9412 14.7617C17.945 14.7153 17.953 14.6181 17.959 14.5455C17.9649 14.473 17.9734 14.341 17.9778 14.2524C17.9822 14.1637 17.9889 14.0305 17.9927 13.9563C17.9969 13.8747 17.9997 11.9099 18 8.9802C18.0003 4.71594 17.999 4.11581 17.9891 3.94475C17.9829 3.83793 17.9747 3.68458 17.9708 3.60397C17.9669 3.52335 17.9589 3.40958 17.9529 3.35113C17.947 3.29269 17.9402 3.22013 17.9378 3.1899C17.9174 2.93503 17.8054 2.49082 17.692 2.21521C17.5229 1.80454 17.3054 1.46535 17.0057 1.14511C16.708 0.827053 16.3201 0.548019 15.9303 0.371474C15.5791 0.212429 15.1208 0.0904452 14.764 0.0610357C14.063 0.00324273 14.2038 0.00621832 12.0595 0.00398311C7.31272 -0.00097099 4.5323 -0.00131557 4.27209 0.00301561ZM7.03892 4.11006C6.99861 4.11971 6.93429 4.1347 6.896 4.14336C6.79349 4.16657 6.64037 4.20383 6.49655 4.24056C6.33186 4.28262 6.27421 4.29764 6.22536 4.31118C6.19714 4.319 6.14767 4.33241 6.11542 4.34099C6.04142 4.36065 5.93892 4.38869 5.87722 4.40614C5.74951 4.44226 5.57673 4.49227 5.52174 4.50904C5.49756 4.51642 5.44808 4.53146 5.4118 4.54246C5.31559 4.57166 5.03341 4.66533 4.96105 4.6921C4.92678 4.70477 4.89215 4.71707 4.88409 4.71944C4.85109 4.72912 4.68212 4.80333 4.62592 4.83284C4.53244 4.88191 4.53016 4.8846 4.36623 5.1393C4.29843 5.24463 4.21289 5.38113 4.19171 5.41779C4.18356 5.43189 4.16945 5.4557 4.16036 5.47068C3.91059 5.88237 3.63843 6.40661 3.45924 6.8212C3.43833 6.86957 3.41778 6.91535 3.41356 6.92294C3.40935 6.93052 3.4015 6.94866 3.39612 6.96325C3.39074 6.97783 3.37428 7.01779 3.35954 7.05205C3.3448 7.08632 3.32995 7.12259 3.32652 7.13267C3.3231 7.14275 3.30995 7.17572 3.29729 7.20595C3.28464 7.23618 3.26274 7.29225 3.24861 7.33054C3.23449 7.36883 3.21667 7.41665 3.20901 7.4368C3.15626 7.57572 3.05077 7.88931 3.01179 8.02309C2.99887 8.06743 2.98506 8.11229 2.9811 8.1228C2.97713 8.1333 2.96801 8.16463 2.96082 8.19242C2.94929 8.23697 2.93067 8.30524 2.87909 8.49212C2.87131 8.52033 2.86198 8.55826 2.85838 8.57639C2.85477 8.59453 2.84685 8.62916 2.84078 8.65334C2.8347 8.67753 2.82088 8.73689 2.81005 8.78526C2.79921 8.83363 2.78537 8.89464 2.77928 8.92084C2.7732 8.94704 2.76536 8.98661 2.76187 9.00878C2.75838 9.03095 2.74918 9.08042 2.74142 9.11871C2.72041 9.22241 2.67203 9.50802 2.66383 9.57674C2.66191 9.59286 2.65365 9.65552 2.64547 9.71598C2.6205 9.90069 2.60035 10.0845 2.59327 10.1923C2.58957 10.2488 2.58136 10.356 2.57505 10.4305C2.56726 10.5224 2.56223 10.7008 2.55944 10.9838C2.55521 11.4125 2.56182 11.6905 2.5821 11.9365C2.58807 12.0091 2.59511 12.1106 2.59774 12.1622C2.6033 12.2714 2.60514 12.2749 2.68673 12.3313C2.71416 12.3502 2.76628 12.3869 2.80256 12.4129C2.88536 12.4722 3.23356 12.7052 3.29729 12.744C3.32349 12.76 3.3878 12.7994 3.44021 12.8317C3.49261 12.8641 3.55033 12.8989 3.56847 12.9092C3.58661 12.9195 3.65752 12.96 3.72605 12.9992C3.79458 13.0384 3.88858 13.0903 3.93494 13.1147C3.9813 13.139 4.02253 13.1614 4.02656 13.1644C4.052 13.1835 4.4447 13.3741 4.60924 13.4472C4.66769 13.4731 4.72211 13.4973 4.73017 13.5009C4.73824 13.5045 4.76627 13.5163 4.79247 13.527C4.81868 13.5378 4.84568 13.5494 4.85247 13.5529C4.87447 13.5643 5.0917 13.651 5.16261 13.6766C5.18276 13.6839 5.22234 13.6987 5.25056 13.7096C5.44314 13.7837 5.82914 13.9116 5.86034 13.9116C5.88211 13.9116 5.88889 13.9044 5.95481 13.8116C6.07119 13.6477 6.16449 13.5062 6.27812 13.3213C6.30416 13.2789 6.38279 13.1428 6.44084 13.0395C6.49152 12.9493 6.55885 12.8122 6.55885 12.7992C6.55885 12.7783 6.53999 12.7654 6.46723 12.7366C6.33733 12.685 6.0617 12.5653 6.0184 12.5417C6.01129 12.5378 5.95804 12.5112 5.90006 12.4825C5.70451 12.386 5.52893 12.2885 5.51517 12.2688C5.50324 12.2518 5.50768 12.2282 5.52449 12.2192C5.53104 12.2157 5.58053 12.1778 5.63447 12.1351C5.6884 12.0924 5.73679 12.0575 5.74198 12.0575C5.74718 12.0575 5.76077 12.0623 5.77218 12.0682C5.80248 12.0838 5.86276 12.1105 5.95417 12.1489C5.99852 12.1676 6.04964 12.1891 6.06778 12.1968C6.09666 12.209 6.19973 12.249 6.34263 12.3034C6.44973 12.3442 6.84315 12.4699 6.9583 12.5002C6.99861 12.5108 7.05468 12.5257 7.08289 12.5335C7.43827 12.631 8.00321 12.7273 8.37286 12.7535C8.42929 12.7575 8.52494 12.7648 8.58541 12.7697C8.7294 12.7815 9.26963 12.7815 9.41363 12.7697C9.47409 12.7648 9.56974 12.7575 9.62618 12.7535C9.99582 12.7273 10.5608 12.631 10.9161 12.5335C10.9444 12.5257 11.0004 12.5108 11.0407 12.5002C11.1561 12.4699 11.5498 12.3441 11.6564 12.3034C11.6806 12.2942 11.7416 12.2709 11.792 12.2517C11.8424 12.2325 11.9018 12.2092 11.9239 12.1999C12.1181 12.1186 12.1881 12.0881 12.2269 12.0682C12.2383 12.0623 12.2519 12.0575 12.2571 12.0575C12.2622 12.0575 12.3106 12.0924 12.3646 12.1351C12.4185 12.1778 12.468 12.2157 12.4745 12.2192C12.4914 12.2282 12.4958 12.2518 12.4839 12.2688C12.4597 12.3034 12.0674 12.5063 11.7855 12.63C11.7306 12.6541 11.6758 12.6782 11.6637 12.6835C11.6516 12.6888 11.6022 12.7088 11.5538 12.728C11.4592 12.7655 11.4402 12.7775 11.4402 12.7992C11.4402 12.8114 11.5054 12.9449 11.5522 13.0285C11.5786 13.0758 11.6258 13.1589 11.6379 13.1794C11.644 13.1899 11.6632 13.2229 11.6805 13.2527C11.6977 13.2826 11.7159 13.3134 11.7208 13.3212C11.7257 13.3289 11.7608 13.385 11.7987 13.4457C11.8762 13.5698 11.9402 13.665 12.0442 13.8116C12.1104 13.9048 12.1169 13.9116 12.139 13.9116C12.1703 13.9116 12.5543 13.7843 12.7485 13.7096C12.7767 13.6987 12.8163 13.6839 12.8364 13.6766C12.9073 13.651 13.1246 13.5643 13.1466 13.5529C13.1534 13.5494 13.1804 13.5378 13.2066 13.527C13.2328 13.5163 13.2608 13.5045 13.2689 13.5009C13.2769 13.4973 13.3313 13.4731 13.3898 13.4472C13.5789 13.3631 13.8747 13.2186 14.0045 13.1467C14.0383 13.1281 14.0672 13.1128 14.0688 13.1128C14.0713 13.1128 14.3793 12.9398 14.4086 12.9219C14.4146 12.9182 14.4509 12.8966 14.4892 12.8738C14.5709 12.8253 14.6974 12.7474 14.7494 12.7136C14.8531 12.6462 15.1388 12.454 15.1965 12.4128C15.2328 12.3869 15.2843 12.3506 15.3109 12.3322C15.3915 12.2765 15.3924 12.2749 15.3992 12.1802C15.4025 12.1349 15.4103 12.0294 15.4167 11.9457C15.435 11.7053 15.4415 11.493 15.4415 11.1304C15.4415 10.6834 15.4281 10.3868 15.3935 10.0641C15.3872 10.0056 15.3778 9.9166 15.3726 9.86622C15.3518 9.66581 15.3035 9.35245 15.2574 9.11871C15.249 9.07638 15.2396 9.02527 15.2365 9.00511C15.2334 8.98496 15.2259 8.94704 15.2198 8.92084C15.2137 8.89464 15.1998 8.83363 15.189 8.78526C15.1782 8.73689 15.1643 8.67753 15.1583 8.65334C15.1522 8.62916 15.1443 8.59453 15.1407 8.57639C15.1371 8.55826 15.1277 8.52033 15.1199 8.49212C15.0684 8.30524 15.0497 8.23697 15.0382 8.19242C15.031 8.16463 15.0219 8.1333 15.0179 8.1228C15.014 8.11229 15.0002 8.06743 14.9872 8.02309C14.9483 7.88931 14.8428 7.57572 14.79 7.4368C14.7824 7.41665 14.7645 7.36883 14.7504 7.33054C14.7363 7.29225 14.7144 7.23618 14.7017 7.20595C14.6891 7.17572 14.6759 7.14275 14.6725 7.13267C14.6691 7.12259 14.6542 7.08632 14.6395 7.05205C14.6248 7.01779 14.6083 6.97783 14.6029 6.96325C14.5975 6.94866 14.5897 6.93052 14.5855 6.92294C14.5813 6.91535 14.5607 6.86957 14.5398 6.8212C14.3804 6.45239 14.1308 5.96406 13.9162 5.601C13.8841 5.54659 13.8547 5.49712 13.851 5.49107C13.8473 5.48503 13.8311 5.45864 13.815 5.43244C13.7989 5.40624 13.7803 5.37491 13.7736 5.36282C13.767 5.35073 13.7386 5.30456 13.7105 5.26022C13.5707 5.03944 13.4726 4.89551 13.4501 4.87817C13.408 4.84571 13.2246 4.75867 13.1149 4.71915C12.9535 4.66093 12.8689 4.63114 12.8474 4.62489C12.8333 4.6208 12.7838 4.60508 12.7375 4.58996C12.6911 4.57483 12.6235 4.55346 12.5872 4.54246C12.551 4.53146 12.5015 4.51642 12.4773 4.50904C12.4223 4.49227 12.2495 4.44226 12.1218 4.40614C12.0601 4.38869 11.9576 4.36065 11.8836 4.34099C11.8514 4.33241 11.8019 4.319 11.7737 4.31118C11.671 4.28272 11.3956 4.21274 11.2423 4.17617C10.8363 4.07931 10.8179 4.07687 10.7945 4.11697C10.7297 4.22785 10.5639 4.56004 10.4841 4.73876C10.472 4.76584 10.4615 4.78027 10.4555 4.77799C10.431 4.76857 10.1062 4.72859 9.87904 4.70703C9.6356 4.68392 9.3091 4.67027 8.99952 4.67027C8.68993 4.67027 8.36343 4.68392 8.12 4.70703C7.89287 4.72859 7.56805 4.76857 7.5435 4.77799C7.53753 4.78028 7.52723 4.76593 7.51533 4.73876C7.50501 4.7152 7.49008 4.68273 7.48216 4.66661C7.47424 4.65049 7.44364 4.58618 7.41417 4.5237C7.34638 4.38002 7.24819 4.19039 7.20449 4.1188C7.1885 4.09259 7.18597 4.09135 7.14996 4.09191C7.1292 4.09223 7.07923 4.1004 7.03892 4.11006ZM6.75674 8.2026C6.6488 8.21472 6.53014 8.24693 6.43129 8.29093C6.288 8.3547 6.11551 8.48817 6.01977 8.60937C6.00385 8.62953 5.98876 8.64766 5.98625 8.64968C5.95618 8.67377 5.8331 8.89712 5.80036 8.987C5.68578 9.30157 5.68215 9.66492 5.79063 9.96149C5.88859 10.2293 6.05039 10.4439 6.26782 10.5944C6.5544 10.7928 6.91724 10.8362 7.24048 10.711C7.4571 10.6271 7.64868 10.4695 7.78667 10.2617C7.88944 10.1069 7.94715 9.96379 7.98814 9.76199C8.00882 9.66018 8.01006 9.64428 8.01006 9.48067C8.01006 9.32337 8.00831 9.29868 7.99123 9.21482C7.94992 9.01189 7.89491 8.87752 7.78474 8.71038C7.58436 8.40641 7.2514 8.2128 6.90699 8.19998C6.85459 8.19802 6.78697 8.19921 6.75674 8.2026ZM11.0261 8.20248C10.8693 8.21862 10.6768 8.28925 10.5427 8.37989C10.4163 8.46534 10.2962 8.5862 10.2143 8.71038C10.1041 8.87752 10.0491 9.01189 10.0078 9.21482C9.99072 9.29868 9.98898 9.32337 9.98898 9.48067C9.98898 9.64428 9.99022 9.66018 10.0109 9.76199C10.0519 9.96379 10.1096 10.1069 10.2124 10.2617C10.4292 10.5881 10.7721 10.7822 11.1324 10.7822C11.5745 10.7822 11.9756 10.5007 12.1713 10.0531C12.2527 9.86683 12.2869 9.69807 12.2864 9.48514C12.2861 9.3706 12.283 9.33306 12.2665 9.24329C12.2282 9.03516 12.1361 8.81103 12.0361 8.68266C12.0267 8.67057 12.0166 8.65734 12.0136 8.65327C11.9078 8.50789 11.7294 8.36288 11.5677 8.29093C11.4049 8.21845 11.1985 8.18474 11.0261 8.20248Z" fill="white"/>
</g>
<defs>
<clipPath id="clip0_124_274">
<rect width="18" height="18" fill="white"/>
</clipPath>
</defs>
</svg>
