<svg width="18" height="18" viewBox="0 0 18 18" fill="none" xmlns="http://www.w3.org/2000/svg">
<g id="Icons" clip-path="url(#clip0_124_270)">
<path id="Subtract" fill-rule="evenodd" clip-rule="evenodd" d="M9 18C13.9706 18 18 13.9706 18 9C18 4.02944 13.9706 0 9 0C4.02944 0 0 4.02944 0 9C0 13.9706 4.02944 18 9 18ZM7.37346 12.8733C7.25658 12.8135 7.15995 12.6134 7.15995 12.6134L6.13121 9.76594C6.12459 9.76535 6.118 9.76449 6.11144 9.76334L3.91499 9.04769C3.91499 9.04769 3.65248 8.94119 3.73701 8.6997C3.75442 8.64989 3.78952 8.60752 3.89452 8.53469C4.38119 8.19547 12.9025 5.13269 12.9025 5.13269C12.9025 5.13269 13.1431 5.05162 13.285 5.10554C13.3201 5.11641 13.3517 5.13641 13.3765 5.16349C13.4013 5.19057 13.4185 5.22376 13.4263 5.25967C13.4417 5.32309 13.4481 5.38835 13.4454 5.45354C13.4451 5.47634 13.4438 5.49846 13.4421 5.52214C13.4412 5.53436 13.4401 5.547 13.439 5.56037C13.437 5.58517 13.4347 5.61245 13.4327 5.64419C13.3808 6.48157 11.8277 12.7312 11.8277 12.7312C11.8277 12.7312 11.7348 13.0969 11.4019 13.1094C11.32 13.112 11.2385 13.0982 11.1622 13.0686C11.0858 13.0391 11.0162 12.9945 10.9575 12.9375C10.6069 12.6359 9.794 12.0591 9.03892 11.5377C8.81045 11.7298 8.35458 12.1241 7.88452 12.5943C7.59596 12.8829 7.44822 12.9219 7.37346 12.8733Z" fill="white"/>
</g>
<defs>
<clipPath id="clip0_124_270">
<rect width="18" height="18" fill="white"/>
</clipPath>
</defs>
</svg>
