<svg width="1281" height="262" viewBox="0 0 1281 262" fill="none" xmlns="http://www.w3.org/2000/svg">
<path d="M413.484 96.7005V120.485H344.731V96.7005H413.484ZM360.34 69.3479H392.003V175.785C392.003 178.708 392.449 180.988 393.341 182.623C394.233 184.209 395.472 185.324 397.057 185.968C398.693 186.612 400.576 186.934 402.706 186.934C404.193 186.934 405.679 186.81 407.166 186.562C408.652 186.265 409.792 186.042 410.585 185.893L415.565 209.455C413.979 209.951 411.749 210.521 408.875 211.165C406.001 211.858 402.508 212.28 398.395 212.428C390.764 212.726 384.075 211.71 378.327 209.381C372.628 207.052 368.194 203.435 365.022 198.529C361.851 193.623 360.29 187.43 360.34 179.947V69.3479ZM459.854 144.865V210.867H428.19V58.6448H458.962V116.843H460.3C462.876 110.104 467.039 104.827 472.787 101.011C478.535 97.1464 485.744 95.2139 494.416 95.2139C502.344 95.2139 509.257 96.9482 515.153 100.417C521.1 103.836 525.708 108.766 528.978 115.208C532.298 121.6 533.933 129.256 533.884 138.175V210.867H502.22V143.824C502.27 136.788 500.486 131.312 496.869 127.398C493.301 123.483 488.296 121.526 481.855 121.526C477.544 121.526 473.728 122.443 470.408 124.276C467.138 126.109 464.561 128.785 462.678 132.303C460.845 135.772 459.903 139.959 459.854 144.865ZM602.459 213.097C590.715 213.097 580.607 210.719 572.133 205.962C563.71 201.155 557.218 194.367 552.66 185.596C548.101 176.776 545.822 166.345 545.822 154.304C545.822 142.56 548.101 132.254 552.66 123.384C557.218 114.514 563.635 107.602 571.911 102.647C580.235 97.6915 589.997 95.2139 601.196 95.2139C608.727 95.2139 615.739 96.4279 622.23 98.856C628.771 101.234 634.469 104.827 639.326 109.633C644.231 114.44 648.047 120.485 650.772 127.769C653.497 135.004 654.86 143.477 654.86 153.189V161.886H558.457V142.263H625.055C625.055 137.704 624.064 133.666 622.082 130.148C620.099 126.63 617.349 123.88 613.831 121.897C610.363 119.866 606.324 118.85 601.716 118.85C596.909 118.85 592.648 119.965 588.931 122.195C585.265 124.375 582.391 127.323 580.31 131.04C578.228 134.707 577.163 138.795 577.113 143.304V161.96C577.113 167.609 578.154 172.49 580.235 176.602C582.366 180.715 585.364 183.887 589.229 186.116C593.094 188.346 597.677 189.461 602.979 189.461C606.498 189.461 609.718 188.966 612.642 187.975C615.566 186.984 618.068 185.497 620.149 183.515C622.23 181.533 623.816 179.105 624.906 176.231L654.191 178.163C652.704 185.2 649.657 191.344 645.049 196.597C640.49 201.799 634.593 205.863 627.359 208.786C620.174 211.66 611.874 213.097 602.459 213.097ZM691.381 210.867L647.826 58.6448H682.982L708.179 164.413H709.443L737.242 58.6448H767.344L795.068 164.636H796.406L821.603 58.6448H856.76L813.204 210.867H781.838L752.85 111.343H751.661L722.748 210.867H691.381ZM885.31 213.023C878.026 213.023 871.535 211.759 865.836 209.232C860.138 206.656 855.629 202.865 852.309 197.86C849.038 192.806 847.403 186.513 847.403 178.981C847.403 172.638 848.567 167.312 850.896 163.001C853.225 158.69 856.397 155.221 860.41 152.595C864.424 149.968 868.983 147.986 874.087 146.649C879.24 145.311 884.641 144.369 890.29 143.824C896.93 143.13 902.281 142.486 906.345 141.892C910.408 141.247 913.356 140.306 915.19 139.067C917.023 137.828 917.94 135.995 917.94 133.567V133.121C917.94 128.414 916.453 124.771 913.48 122.195C910.557 119.618 906.394 118.33 900.993 118.33C895.295 118.33 890.761 119.593 887.391 122.12C884.022 124.598 881.792 127.72 880.702 131.486L851.417 129.107C852.903 122.17 855.827 116.174 860.187 111.12C864.548 106.016 870.172 102.102 877.06 99.3762C883.997 96.6014 892.024 95.2139 901.142 95.2139C907.484 95.2139 913.554 95.9572 919.352 97.4437C925.199 98.9303 930.377 101.234 934.886 104.356C939.445 107.478 943.038 111.492 945.664 116.397C948.29 121.253 949.603 127.076 949.603 133.864V210.867H919.575V195.036H918.683C916.85 198.603 914.397 201.75 911.325 204.475C908.252 207.151 904.561 209.257 900.25 210.793C895.939 212.28 890.959 213.023 885.31 213.023ZM894.378 191.171C899.036 191.171 903.149 190.254 906.716 188.421C910.284 186.538 913.084 184.01 915.115 180.839C917.147 177.668 918.163 174.075 918.163 170.062V157.946C917.172 158.59 915.809 159.185 914.075 159.73C912.39 160.226 910.482 160.696 908.352 161.142C906.221 161.539 904.09 161.91 901.959 162.257C899.829 162.555 897.896 162.827 896.162 163.075C892.445 163.62 889.2 164.487 886.425 165.676C883.65 166.866 881.495 168.476 879.958 170.508C878.422 172.49 877.654 174.967 877.654 177.94C877.654 182.251 879.215 185.547 882.337 187.826C885.508 190.056 889.522 191.171 894.378 191.171ZM1017.23 256.059C1006.97 256.059 998.178 254.646 990.845 251.822C983.561 249.047 977.763 245.256 973.452 240.45C969.141 235.643 966.341 230.242 965.053 224.246L994.338 220.307C995.23 222.586 996.642 224.717 998.575 226.699C1000.51 228.681 1003.06 230.267 1006.23 231.456C1009.45 232.695 1013.37 233.314 1017.97 233.314C1024.86 233.314 1030.54 231.63 1035 228.26C1039.5 224.94 1041.76 219.366 1041.76 211.536V190.65H1040.42C1039.03 193.822 1036.95 196.82 1034.18 199.644C1031.4 202.468 1027.83 204.773 1023.47 206.556C1019.11 208.34 1013.91 209.232 1007.87 209.232C999.293 209.232 991.489 207.25 984.452 203.286C977.466 199.272 971.891 193.153 967.729 184.927C963.616 176.652 961.56 166.197 961.56 153.561C961.56 140.628 963.666 129.826 967.877 121.154C972.089 112.483 977.689 105.991 984.675 101.68C991.712 97.3694 999.417 95.2139 1007.79 95.2139C1014.18 95.2139 1019.54 96.304 1023.85 98.4843C1028.16 100.615 1031.63 103.291 1034.25 106.512C1036.93 109.683 1038.98 112.805 1040.42 115.877H1041.61V96.7005H1073.05V211.982C1073.05 221.694 1070.67 229.821 1065.92 236.362C1061.16 242.903 1054.57 247.808 1046.14 251.079C1037.77 254.399 1028.13 256.059 1017.23 256.059ZM1017.9 185.447C1023 185.447 1027.31 184.184 1030.83 181.657C1034.4 179.08 1037.13 175.413 1039.01 170.656C1040.94 165.85 1041.91 160.102 1041.91 153.412C1041.91 146.723 1040.97 140.925 1039.08 136.02C1037.2 131.065 1034.47 127.224 1030.91 124.499C1027.34 121.774 1023 120.411 1017.9 120.411C1012.7 120.411 1008.31 121.823 1004.74 124.648C1001.18 127.422 998.476 131.287 996.642 136.243C994.809 141.198 993.892 146.921 993.892 153.412C993.892 160.003 994.809 165.701 996.642 170.508C998.525 175.265 1001.23 178.956 1004.74 181.582C1008.31 184.159 1012.7 185.447 1017.9 185.447ZM1141.9 213.097C1130.16 213.097 1120.05 210.719 1111.58 205.962C1103.16 201.155 1096.66 194.367 1092.11 185.596C1087.55 176.776 1085.27 166.345 1085.27 154.304C1085.27 142.56 1087.55 132.254 1092.11 123.384C1096.66 114.514 1103.08 107.602 1111.36 102.647C1119.68 97.6915 1129.44 95.2139 1140.64 95.2139C1148.17 95.2139 1155.18 96.4279 1161.68 98.856C1168.22 101.234 1173.92 104.827 1178.77 109.633C1183.68 114.44 1187.49 120.485 1190.22 127.769C1192.94 135.004 1194.31 143.477 1194.31 153.189V161.886H1097.9V142.263H1164.5C1164.5 137.704 1163.51 133.666 1161.53 130.148C1159.55 126.63 1156.79 123.88 1153.28 121.897C1149.81 119.866 1145.77 118.85 1141.16 118.85C1136.35 118.85 1132.09 119.965 1128.38 122.195C1124.71 124.375 1121.84 127.323 1119.76 131.04C1117.67 134.707 1116.61 138.795 1116.56 143.304V161.96C1116.56 167.609 1117.6 172.49 1119.68 176.602C1121.81 180.715 1124.81 183.887 1128.67 186.116C1132.54 188.346 1137.12 189.461 1142.42 189.461C1145.94 189.461 1149.16 188.966 1152.09 187.975C1155.01 186.984 1157.51 185.497 1159.59 183.515C1161.68 181.533 1163.26 179.105 1164.35 176.231L1193.64 178.163C1192.15 185.2 1189.1 191.344 1184.49 196.597C1179.94 201.799 1174.04 205.863 1166.8 208.786C1159.62 211.66 1151.32 213.097 1141.9 213.097ZM1206.6 210.867V96.7005H1237.29V116.62H1238.48C1240.56 109.534 1244.06 104.183 1248.96 100.565C1253.87 96.8987 1259.52 95.0652 1265.91 95.0652C1267.5 95.0652 1269.2 95.1644 1271.04 95.3626C1272.87 95.5608 1274.48 95.8333 1275.87 96.1802V124.276C1274.38 123.83 1272.33 123.434 1269.7 123.087C1267.07 122.74 1264.67 122.566 1262.49 122.566C1257.83 122.566 1253.67 123.582 1250 125.614C1246.39 127.596 1243.51 130.371 1241.38 133.939C1239.3 137.506 1238.26 141.619 1238.26 146.277V210.867H1206.6Z" fill="white"/>
<rect width="261.633" height="261.633" rx="130.816" fill="#8D3DF2"/>
<path fill-rule="evenodd" clip-rule="evenodd" d="M79.5226 182.381C86.1017 187.25 93.9048 189.684 102.932 189.684C109.205 189.684 114.866 188.349 119.915 185.679C124.158 183.435 127.808 180.747 130.862 177.616C133.547 174.136 138.286 166.37 142.447 155.964C145.894 147.344 148.849 137.146 149.955 126.338C149.96 125.865 149.968 125.385 149.98 124.899C150.286 118.46 150.439 111.864 150.439 105.111C150.439 100.085 148.985 95.6088 146.078 91.6825C143.324 87.5991 138.811 85.5574 132.538 85.5574C126.418 85.5574 121.981 87.5991 119.227 91.6825C116.626 95.6088 115.325 100.085 115.325 105.111V124.899C115.478 131.181 114.942 136.364 113.718 140.448C112.647 144.374 110.276 146.337 106.604 146.337C103.085 146.337 100.79 145.081 99.7188 142.568C98.8008 140.055 98.3418 136.286 98.3418 131.26C98.3418 128.119 98.7243 124.664 99.4893 120.894C100.407 116.968 101.249 113.12 102.014 109.351C102.932 105.582 103.391 102.284 103.391 99.4566C103.391 93.1745 101.861 88.1488 98.8008 84.3795C95.8938 80.4532 91.5333 78.49 85.7192 78.49C80.8232 78.49 76.6156 80.2176 73.0966 83.6728C69.7305 86.9709 66.9765 91.2899 64.8345 96.6297C62.8455 101.969 61.3155 107.78 60.2444 114.063C59.3264 120.188 58.8674 126.077 58.8674 131.731C58.8674 143.196 60.6269 153.326 64.146 162.121C67.818 170.759 72.9436 177.512 79.5226 182.381Z" fill="#41F7B5"/>
<path d="M155.567 160.445C157.259 156.124 158.859 151.394 160.212 146.358C161.007 146.572 161.879 146.679 162.828 146.679C169.932 146.679 173.484 141.611 173.484 131.473C173.484 128.305 172.88 124.821 171.671 121.019C170.613 117.059 169.479 113.179 168.27 109.377C167.061 105.417 166.456 101.933 166.456 98.9231C166.456 85.301 171.897 78.49 182.78 78.49C187.617 78.49 191.698 80.1532 195.023 83.4795C198.499 86.8058 201.22 91.1617 203.185 96.5471C205.301 101.933 206.812 107.714 207.719 113.891C208.777 120.069 209.306 126.009 209.306 131.711C209.306 149.293 205.376 163.39 197.517 174.003C189.808 184.457 179.228 189.684 165.776 189.684C159.73 189.684 154.138 188.496 148.999 186.12C147.185 185.226 145.485 184.243 143.898 183.171C147.236 178.336 151.694 170.332 155.567 160.445Z" fill="#41F7B5"/>
</svg>
